<svg width="14" height="13" viewBox="0 0 14 13" fill="none" xmlns="http://www.w3.org/2000/svg">
<path d="M12.6668 8.11551C11.6851 8.39079 10.6479 8.39981 9.66159 8.14165C8.67528 7.88349 7.77546 7.36745 7.05454 6.64653C6.33362 5.92561 5.81759 5.0258 5.55942 4.03949C5.30126 3.05318 5.31029 2.01593 5.58556 1.03426C4.61773 1.30365 3.73736 1.8219 3.03215 2.53741C2.32694 3.25292 1.8215 4.1407 1.56618 5.11234C1.31086 6.08398 1.31456 7.10556 1.57692 8.07532C1.83928 9.04508 2.35114 9.92918 3.06152 10.6396C3.77189 11.3499 4.65599 11.8618 5.62576 12.1242C6.59552 12.3865 7.6171 12.3902 8.58873 12.1349C9.56037 11.8796 10.4482 11.3741 11.1637 10.6689C11.8792 9.96372 12.3974 9.08335 12.6668 8.11551Z" stroke="black" stroke-linecap="round" stroke-linejoin="round"/>
</svg>
